<svg width="72" height="72" viewBox="0 0 72 72" fill="none" xmlns="http://www.w3.org/2000/svg">
<path d="M67.4906 52.2956V56.3459H63.4403H9.05031H5V52.2956H67.4906Z" fill="#4D5DB1"/>
<path d="M67.4906 41.3019V52.2956H5V41.3019C5 40.0742 5.48769 38.8968 6.35578 38.0288C7.22388 37.1607 8.40126 36.673 9.62893 36.673H62.8616C64.0893 36.673 65.2667 37.1607 66.1348 38.0288C67.0029 38.8968 67.4906 40.0742 67.4906 41.3019Z" fill="#70CBF6"/>
<path d="M15.4556 33.4211C15.5868 34.3269 16.0408 35.1548 16.734 35.7523C17.4272 36.3499 18.313 36.6768 19.2282 36.673H10.7862V22.7862C16.1153 19.3145 25.5236 17 36.2453 17C46.9671 17 56.3754 19.3145 61.7044 22.7862V36.673H53.2624C54.1776 36.6768 55.0634 36.3499 55.7566 35.7523C56.4499 35.1548 56.9039 34.3269 57.035 33.4211C57.0602 33.2409 57.0737 33.0592 57.0755 32.8772C57.0737 32.529 57.025 32.1826 56.9308 31.8473L56.7746 31.315C56.5427 30.5222 56.0597 29.8261 55.3981 29.3315C54.7365 28.8369 53.9322 28.5704 53.1062 28.5723H42.5291C41.7031 28.5704 40.8988 28.8369 40.2372 29.3315C39.5756 29.8261 39.0925 30.5222 38.8607 31.315L38.7044 31.8473C38.5601 32.3589 38.5246 32.895 38.6003 33.4211C38.7303 34.3213 39.1826 35.1437 39.8732 35.7356C40.5673 36.3372 41.4543 36.6698 42.3729 36.673H30.1178C31.0348 36.6731 31.9216 36.3446 32.6174 35.7472C33.308 35.1553 33.7603 34.3329 33.8903 33.4327C33.966 32.9066 33.9306 32.3704 33.7862 31.8589L33.63 31.3265C33.4002 30.5316 32.918 29.8329 32.2562 29.3361C31.5945 28.8393 30.7891 28.5712 29.9615 28.5723H19.3844C18.5584 28.5704 17.7541 28.8369 17.0925 29.3315C16.431 29.8261 15.9479 30.5222 15.716 31.315L15.5598 31.8473C15.4656 32.1826 15.4169 32.529 15.4151 32.8772C15.4169 33.0592 15.4304 33.2409 15.4556 33.4211Z" fill="#FFE2B6"/>
<path d="M8.4717 41.3019C8.4717 40.0742 8.95939 38.8968 9.82748 38.0287C10.6956 37.1606 11.873 36.673 13.1006 36.673H14.2579V22.7862C19.2976 19.4996 27.9826 17.2604 37.9811 17C37.4025 17 36.8239 17 36.2453 17C25.5235 17 16.1152 19.3145 10.7862 22.7862V36.673H9.62893C8.40126 36.673 7.22388 37.1606 6.35578 38.0287C5.48769 38.8968 5 40.0742 5 41.3019V56.3459H8.4717V41.3019Z" fill="white"/>
<path d="M57.0755 32.8772C57.0737 33.0592 57.0602 33.2409 57.035 33.4211C56.9038 34.3269 56.4499 35.1548 55.7566 35.7523C55.0634 36.3499 54.1776 36.6768 53.2624 36.673H42.3728C41.4558 36.6731 40.569 36.3446 39.8732 35.7472C39.1826 35.1553 38.7303 34.3329 38.6003 33.4327C38.5246 32.9066 38.5601 32.3704 38.7044 31.8589L38.8606 31.3265C39.0904 30.5316 39.5726 29.8329 40.2344 29.3361C40.8961 28.8393 41.7016 28.5712 42.5291 28.5723H53.1062C53.9322 28.5705 54.7365 28.8369 55.3981 29.3315C56.0596 29.8261 56.5427 30.5222 56.7746 31.315L56.9308 31.8473C57.025 32.1826 57.0737 32.529 57.0755 32.8772V32.8772Z" fill="#D3D6EB"/>
<path d="M33.7862 31.8473C33.9305 32.3589 33.966 32.895 33.8903 33.4211C33.7603 34.3213 33.308 35.1437 32.6174 35.7356C31.9232 36.3372 31.0363 36.6699 30.1177 36.673H19.2282C18.313 36.6768 17.4272 36.3499 16.734 35.7523C16.0407 35.1548 15.5867 34.3269 15.4556 33.4211C15.4304 33.2409 15.4169 33.0592 15.4151 32.8772C15.4169 32.529 15.4656 32.1826 15.5598 31.8473L15.716 31.315C15.9479 30.5222 16.4309 29.8261 17.0925 29.3315C17.7541 28.8369 18.5584 28.5705 19.3844 28.5723H29.9615C30.7875 28.5705 31.5918 28.8369 32.2534 29.3315C32.915 29.8261 33.3981 30.5222 33.6299 31.315L33.7862 31.8473Z" fill="#D3D6EB"/>
<path d="M18.9273 33.4211C18.9021 33.2409 18.8886 33.0592 18.8868 32.8772C18.8886 32.529 18.9373 32.1826 19.0315 31.8473L19.1877 31.315C19.4196 30.5222 19.9026 29.8261 20.5642 29.3315C21.2258 28.8369 22.0301 28.5705 22.8561 28.5723H19.3844C18.5584 28.5705 17.7541 28.8369 17.0925 29.3315C16.4309 29.8261 15.9479 30.5222 15.716 31.315L15.5598 31.8473C15.4656 32.1826 15.4169 32.529 15.4151 32.8772C15.4169 33.0592 15.4304 33.2409 15.4556 33.4211C15.5867 34.3269 16.0407 35.1548 16.734 35.7523C17.4272 36.3499 18.313 36.6768 19.2282 36.673H22.6999C21.7847 36.6768 20.8989 36.3499 20.2057 35.7523C19.5124 35.1548 19.0584 34.3269 18.9273 33.4211V33.4211Z" fill="white"/>
<path d="M53.2624 36.673H62.8616C64.0893 36.673 65.2667 37.1607 66.1348 38.0288C67.0029 38.8968 67.4906 40.0742 67.4906 41.3019V56.3459H5V41.3019C5 40.0742 5.48769 38.8968 6.35578 38.0288C7.22388 37.1607 8.40126 36.673 9.62893 36.673H19.2282" stroke="#141A3A" stroke-width="2" stroke-linecap="round" stroke-linejoin="round"/>
<path d="M30.1177 36.673H42.3728" stroke="#141A3A" stroke-width="2" stroke-linecap="round" stroke-linejoin="round"/>
<path d="M62.8616 56.3459V58.6604" stroke="#141A3A" stroke-width="2" stroke-linecap="round" stroke-linejoin="round"/>
<path d="M9.62891 56.3459V58.6604" stroke="#141A3A" stroke-width="2" stroke-linecap="round" stroke-linejoin="round"/>
<path d="M5 52.2956H67.4906" stroke="#141A3A" stroke-width="2" stroke-linecap="round" stroke-linejoin="round"/>
<path d="M10.7862 36.673V22.7862V18.1572" stroke="#141A3A" stroke-width="2" stroke-linecap="round" stroke-linejoin="round"/>
<path d="M61.7044 36.673V22.7862V18.1572" stroke="#141A3A" stroke-width="2" stroke-linecap="round" stroke-linejoin="round"/>
<path d="M10.7862 22.7862C16.1153 19.3145 25.5236 17 36.2453 17C46.9671 17 56.3754 19.3145 61.7044 22.7862" stroke="#141A3A" stroke-width="2" stroke-linecap="round" stroke-linejoin="round"/>
<path d="M30.1177 36.673H19.2282C18.313 36.6768 17.4272 36.3499 16.734 35.7523C16.0407 35.1548 15.5867 34.3269 15.4556 33.4211C15.4304 33.2409 15.4169 33.0592 15.4151 32.8772C15.4169 32.529 15.4656 32.1826 15.5598 31.8473L15.716 31.315C15.9479 30.5222 16.4309 29.8261 17.0925 29.3315C17.7541 28.8369 18.5584 28.5705 19.3844 28.5723H29.9615C30.7875 28.5705 31.5918 28.8369 32.2534 29.3315C32.915 29.8261 33.3981 30.5222 33.6299 31.315L33.7862 31.8473C33.9305 32.3589 33.966 32.895 33.8903 33.4211C33.7603 34.3213 33.308 35.1437 32.6174 35.7356C31.9232 36.3372 31.0363 36.6699 30.1177 36.673V36.673Z" stroke="#141A3A" stroke-width="2" stroke-linecap="round" stroke-linejoin="round"/>
<path d="M42.3728 36.673H53.2624C54.1776 36.6768 55.0634 36.3499 55.7566 35.7523C56.4499 35.1548 56.9038 34.3269 57.035 33.4211C57.0602 33.2409 57.0737 33.0592 57.0755 32.8772C57.0737 32.529 57.025 32.1826 56.9308 31.8473L56.7746 31.315C56.5427 30.5222 56.0596 29.8261 55.3981 29.3315C54.7365 28.8369 53.9322 28.5705 53.1062 28.5723H42.5291C41.703 28.5705 40.8987 28.8369 40.2372 29.3315C39.5756 29.8261 39.0925 30.5222 38.8606 31.315L38.7044 31.8473C38.5601 32.3589 38.5246 32.895 38.6003 33.4211C38.7303 34.3213 39.1826 35.1437 39.8732 35.7356C40.5673 36.3372 41.4543 36.6699 42.3728 36.673V36.673Z" stroke="#141A3A" stroke-width="2" stroke-linecap="round" stroke-linejoin="round"/>
<path d="M34.5095 22.2075H37.9812" stroke="#141A3A" stroke-width="2" stroke-linecap="round" stroke-linejoin="round"/>
</svg>
