<svg width="46" height="46" viewBox="0 0 46 46" fill="none" xmlns="http://www.w3.org/2000/svg">
<path d="M23 46C10.2971 46 0 35.7029 0 23C0 10.2971 10.2971 0 23 0C35.7029 0 46 10.2971 46 23C46 35.7029 35.7029 46 23 46ZM23 41.4C27.88 41.4 32.5601 39.4614 36.0108 36.0108C39.4614 32.5601 41.4 27.88 41.4 23C41.4 18.12 39.4614 13.4399 36.0108 9.98924C32.5601 6.53857 27.88 4.6 23 4.6C18.12 4.6 13.4399 6.53857 9.98924 9.98924C6.53857 13.4399 4.6 18.12 4.6 23C4.6 27.88 6.53857 32.5601 9.98924 36.0108C13.4399 39.4614 18.12 41.4 23 41.4V41.4ZM14.95 27.6H27.6C27.905 27.6 28.1975 27.4788 28.4132 27.2632C28.6288 27.0475 28.75 26.755 28.75 26.45C28.75 26.145 28.6288 25.8525 28.4132 25.6368C28.1975 25.4212 27.905 25.3 27.6 25.3H18.4C16.875 25.3 15.4125 24.6942 14.3341 23.6159C13.2558 22.5375 12.65 21.075 12.65 19.55C12.65 18.025 13.2558 16.5625 14.3341 15.4841C15.4125 14.4058 16.875 13.8 18.4 13.8H20.7V9.2H25.3V13.8H31.05V18.4H18.4C18.095 18.4 17.8025 18.5212 17.5868 18.7368C17.3712 18.9525 17.25 19.245 17.25 19.55C17.25 19.855 17.3712 20.1475 17.5868 20.3632C17.8025 20.5788 18.095 20.7 18.4 20.7H27.6C29.125 20.7 30.5875 21.3058 31.6659 22.3841C32.7442 23.4625 33.35 24.925 33.35 26.45C33.35 27.975 32.7442 29.4375 31.6659 30.5159C30.5875 31.5942 29.125 32.2 27.6 32.2H25.3V36.8H20.7V32.2H14.95V27.6Z" fill="#43D490"/>
</svg>
