<svg width="72" height="72" viewBox="0 0 72 72" fill="none" xmlns="http://www.w3.org/2000/svg">
<g clip-path="url(#clip0_161_2108)">
<path d="M25.8033 43.6666C20.6667 44.97 17.3125 47.222 17.3125 49.7808C17.3125 53.8154 25.6787 57.0833 36 57.0833C46.3213 57.0833 54.6875 53.8154 54.6875 49.7808C54.6875 47.222 51.3046 44.9891 46.1967 43.6666" fill="#43D490"/>
<path d="M26.0717 43.6666C21.0883 44.97 17.7917 47.222 17.7917 49.7808C17.7917 53.8154 25.9471 57.0833 36 57.0833C46.0529 57.0833 54.2083 53.8154 54.2083 49.7808C54.2083 47.222 50.9117 44.9891 45.9283 43.6666" stroke="#423E5E" stroke-width="2" stroke-linecap="round" stroke-linejoin="round"/>
<path d="M48.4583 28.1513C48.4583 20.8392 42.8808 14.9167 36 14.9167C29.1192 14.9167 23.5417 20.8392 23.5417 28.1513C23.5417 35.4634 36 53.25 36 53.25C36 53.25 48.4583 35.7029 48.4583 28.1513Z" fill="white"/>
<path d="M48.4583 28.1513C48.4583 20.8392 42.8808 14.9167 36 14.9167C29.1192 14.9167 23.5417 20.8392 23.5417 28.1513C23.5417 35.4634 36 53.25 36 53.25C36 53.25 48.4583 35.7029 48.4583 28.1513Z" stroke="#423E5E" stroke-width="2" stroke-linecap="round" stroke-linejoin="round"/>
<path d="M36 36C40.7635 36 44.625 32.1385 44.625 27.375C44.625 22.6115 40.7635 18.75 36 18.75C31.2365 18.75 27.375 22.6115 27.375 27.375C27.375 32.1385 31.2365 36 36 36Z" fill="#FFE2B6"/>
<path d="M40.1208 34.9554C38.281 35.9539 36.1409 36.2492 34.0994 35.7863C32.058 35.3234 30.2546 34.1338 29.0254 32.4394C27.7962 30.745 27.2252 28.6614 27.4188 26.5771C27.6124 24.4928 28.5574 22.5501 30.0776 21.111C31.5978 19.672 33.5895 18.835 35.6813 18.756C37.7731 18.677 39.8222 19.3614 41.4466 20.6816C43.0711 22.0019 44.1599 23.8678 44.5102 25.9316C44.8605 27.9953 44.4483 30.1161 43.3504 31.8983" stroke="#423E5E" stroke-width="2" stroke-linecap="round" stroke-linejoin="round"/>
</g>
<defs>
<clipPath id="clip0_161_2108">
<rect width="46" height="46" fill="white" transform="translate(13 13)"/>
</clipPath>
</defs>
</svg>
