<svg version="1.1" xmlns="http://www.w3.org/2000/svg" xmlns:xlink="http://www.w3.org/1999/xlink" viewBox="0 0 172 172"><g fill="none" fill-rule="nonzero" stroke="none" stroke-width="1" stroke-linecap="butt" stroke-linejoin="miter" stroke-miterlimit="10" stroke-dasharray="" stroke-dashoffset="0" font-family="none" font-weight="none" font-size="none" text-anchor="none" style="mix-blend-mode: normal"><path d="M0,172v-172h172v172z" fill="none"></path><g fill="#17a2b8"><path d="M118.63318,9.26978c-7.57002,0 -15.14217,2.8818 -20.90686,8.64514l-15.20117,15.20117c-7.47125,7.47125 -10.39495,18.4551 -7.62683,28.66492c0.74712,2.75469 2.86101,4.84846 5.64795,5.59021c2.83262,0.7525 5.76486,-0.03036 7.83154,-2.09436l4.70837,-4.71362c1.591,-1.591 2.44075,-3.84753 2.33057,-6.19909c-0.11019,-2.29244 0.70782,-4.43719 2.30957,-6.04163l15.20117,-15.20642c3.14169,-3.139 8.25907,-3.14169 11.40613,0l3.80029,3.80029c1.52113,1.52381 2.36206,3.55031 2.36206,5.70569c0,2.15537 -0.83825,4.17663 -2.36206,5.70044l-15.20642,15.20642c-1.60175,1.60175 -3.76812,2.42245 -6.03637,2.30957c-2.30588,-0.1075 -4.61335,0.73957 -6.20435,2.33057l-4.70837,4.70838c-2.06937,2.06668 -2.85748,4.99879 -2.09961,7.83679c0.74175,2.78694 2.83552,4.89289 5.59021,5.6427c2.54775,0.69069 5.13875,1.02881 7.71606,1.02881c7.75344,0 15.34004,-3.04427 20.94885,-8.65039l15.20117,-15.20642c5.58462,-5.58463 8.66089,-13.00574 8.66089,-20.90161c0.00269,-7.90662 -3.07627,-15.33017 -8.66089,-20.91211l-3.80029,-3.80029c-5.762,-5.76334 -13.3316,-8.64514 -20.90161,-8.64514zM118.63318,14.63953c6.19334,-0.00034 12.38476,2.35522 17.10132,7.07043l3.80029,3.80029c4.56875,4.56875 7.08618,10.64582 7.08618,17.10657c0,6.46344 -2.51218,12.53513 -7.08093,17.10657l-15.20642,15.20117c-6.11406,6.11406 -15.10514,8.5014 -23.45789,6.23584c-1.27656,-0.344 -1.68217,-1.39654 -1.80042,-1.83191c-0.25531,-0.96481 0.00731,-1.95469 0.70337,-2.65076l4.71362,-4.71362c0.4945,-0.4945 1.18888,-0.76111 1.97363,-0.76111c0.05644,0 0.11153,0.00256 0.16797,0.00525c3.75175,0.172 7.444,-1.2344 10.09387,-3.88428l15.20642,-15.20117c2.537,-2.537 3.93677,-5.91548 3.93677,-9.50598c0,-3.5905 -1.39977,-6.96104 -3.93677,-9.50073l-3.80029,-3.80029c-5.24063,-5.24062 -13.77146,-5.23794 -19.00671,0l-15.20117,15.20117c-2.64719,2.64719 -4.06178,6.33125 -3.87903,10.09912c0.043,0.85194 -0.23167,1.61216 -0.76111,2.1416l-4.70837,4.71362c-0.69606,0.69337 -1.69669,0.95331 -2.65076,0.70337c-0.43806,-0.11556 -1.49047,-0.52654 -1.83716,-1.80042c-2.26556,-8.35544 0.12447,-17.34382 6.23584,-23.45789l15.20117,-15.20642c4.71656,-4.71387 10.91322,-7.0701 17.10657,-7.07043zM55.42969,27.61511c-0.34484,0.05715 -0.68221,0.18498 -0.99732,0.38318c-1.25506,0.7955 -1.62741,2.45868 -0.8346,3.71106l8.0625,12.71314c0.51062,0.80625 1.38327,1.24927 2.27283,1.24927c0.49181,0 0.98686,-0.13249 1.43299,-0.41467c1.25506,-0.7955 1.6274,-2.45869 0.83459,-3.71106l-8.0625,-12.71838c-0.59461,-0.93928 -1.67398,-1.38398 -2.70849,-1.21252zM33.98743,30.74878c-0.68733,0 -1.37474,0.26195 -1.90015,0.78735c-1.05081,1.05081 -1.05081,2.74948 0,3.80029l17.23779,17.23779c0.52406,0.52406 1.21215,0.78735 1.90015,0.78735c0.688,0 1.37608,-0.26329 1.90015,-0.78735c1.05081,-1.05081 1.05081,-2.74948 0,-3.80029l-17.23779,-17.23779c-0.52541,-0.52541 -1.21282,-0.78735 -1.90015,-0.78735zM31.25793,52.66345c-1.03414,-0.17183 -2.11389,0.27324 -2.70849,1.21252c-0.7955,1.25506 -0.42047,2.91556 0.8346,3.71106l12.71313,8.0625c0.44613,0.28219 0.94911,0.41467 1.43823,0.41467c0.88956,0 1.75951,-0.44302 2.27283,-1.24927c0.7955,-1.25506 0.42047,-2.91031 -0.8346,-3.70581l-12.71314,-8.0625c-0.31444,-0.19888 -0.65785,-0.3259 -1.00256,-0.38318zM54.04919,73.87476c-7.74731,0.00479 -15.33168,3.0417 -20.9331,8.64514l-15.20117,15.20642c-5.58462,5.58462 -8.66089,13.00574 -8.66089,20.90161c0,7.89588 3.08151,15.32224 8.66614,20.90686l3.79504,3.79504c5.76469,5.76469 13.33617,8.65039 20.90686,8.65039c7.568,0 15.13961,-2.88839 20.90161,-8.65039l15.20117,-15.19592c7.47125,-7.47125 10.39495,-18.45766 7.62683,-28.67016c-0.74712,-2.752 -2.86101,-4.83796 -5.64795,-5.57971c-2.838,-0.75519 -5.76754,0.02767 -7.83154,2.09436l-4.70837,4.70837c-1.59637,1.591 -2.44613,3.85547 -2.33057,6.20435c0.11019,2.29244 -0.70782,4.43719 -2.30957,6.04162l-15.20117,15.20117c-3.14169,3.139 -8.25907,3.14437 -11.40613,0l-3.80029,-3.80029c-3.14438,-3.14438 -3.14438,-8.25651 0,-11.40088l15.20642,-15.20642c1.60444,-1.60444 3.752,-2.42513 6.03637,-2.30957c2.35425,0.11825 4.61335,-0.73688 6.20435,-2.33057l4.70837,-4.70837c2.06938,-2.06669 2.85748,-4.99879 2.09961,-7.83679c-0.74175,-2.78694 -2.83552,-4.89289 -5.59021,-5.6427c-2.55245,-0.69069 -5.14938,-1.02516 -7.73181,-1.02356zM54.05444,79.24451c2.10969,0 4.23433,0.28072 6.31983,0.84509c1.27656,0.344 1.68217,1.39654 1.80042,1.83191c0.25531,0.96481 -0.00731,1.95469 -0.70337,2.65076l-4.71362,4.71362c-0.53213,0.53213 -1.28966,0.79348 -2.1416,0.75586c-3.72756,-0.18544 -7.44925,1.2344 -10.09912,3.88428l-15.20117,15.20117c-5.23794,5.24063 -5.23794,13.76877 0,19.00671l3.80029,3.80029c5.24063,5.24062 13.76621,5.23794 19.00146,0l15.20117,-15.20642c2.64719,-2.64719 4.06703,-6.32856 3.88428,-10.09912c-0.043,-0.84925 0.22642,-1.60692 0.75586,-2.13635l4.71362,-4.71362c0.69606,-0.69606 1.68594,-0.96137 2.65076,-0.70337c0.43537,0.11556 1.49047,0.52129 1.83716,1.79517c2.26825,8.36081 -0.12447,17.34907 -6.23584,23.46314l-15.20117,15.20117c-4.56875,4.56875 -10.64057,7.08618 -17.10132,7.08618c-6.46075,0 -12.53782,-2.51743 -17.10657,-7.08618l-3.80029,-3.80029c-4.56875,-4.56875 -7.08618,-10.64057 -7.08618,-17.10132c0,-6.46075 2.51218,-12.53782 7.08093,-17.10657l15.20642,-15.20117c4.58756,-4.58756 10.79556,-7.08093 17.13806,-7.08093zM119.76172,95.72119c-1.03414,-0.17183 -2.11389,0.27324 -2.70849,1.21252c-0.7955,1.25506 -0.42047,2.91556 0.83459,3.71106l12.71838,8.0625c0.44612,0.28219 0.94386,0.41467 1.43298,0.41467c0.88956,0 1.75951,-0.43777 2.27283,-1.24402c0.79282,-1.25238 0.42572,-2.91556 -0.82934,-3.71106l-12.71838,-8.0625c-0.31444,-0.19888 -0.65785,-0.3259 -1.00256,-0.38318zM111.63623,108.39233c-0.68733,0 -1.37474,0.2672 -1.90015,0.7926c-1.05081,1.05081 -1.05081,2.74423 0,3.79504l17.23779,17.23779c0.52406,0.52406 1.21215,0.78735 1.90015,0.78735c0.688,0 1.37608,-0.26329 1.90015,-0.78735c1.05081,-1.05081 1.05081,-2.74948 0,-3.80029l-17.23779,-17.23254c-0.52541,-0.52541 -1.21282,-0.7926 -1.90015,-0.7926zM98.48743,116.1189c-0.34438,0.05682 -0.68355,0.18565 -0.99731,0.38318c-1.25506,0.7955 -1.62741,2.45344 -0.8346,3.70581l8.0625,12.71838c0.51062,0.80625 1.38326,1.24927 2.27283,1.24927c0.49181,0 0.99211,-0.13773 1.43823,-0.41992c1.25506,-0.7955 1.62216,-2.45343 0.82935,-3.70581l-8.0625,-12.71838c-0.59663,-0.93727 -1.67536,-1.38297 -2.7085,-1.21252z"></path></g></g></svg>