<svg width="72" height="72" viewBox="0 0 72 72" fill="none" xmlns="http://www.w3.org/2000/svg">
<path d="M63.0331 52.3856V55.6542C63.0331 56.3044 62.6682 56.9279 62.019 57.3877C61.3703 57.8474 60.49 58.1057 59.5721 58.1057H54.9575C54.0398 58.1057 53.1595 57.8474 52.5105 57.3877C51.8615 56.9279 51.4968 56.3044 51.4968 55.6542V52.3856H63.0331Z" fill="#737373"/>
<path d="M20.3495 52.3856V55.6542C20.3495 56.3044 19.9849 56.9279 19.3359 57.3877C18.6869 57.8474 17.8066 58.1057 16.8887 58.1057H12.2743C11.3564 58.1057 10.4762 57.8474 9.8271 57.3877C9.17808 56.9279 8.81348 56.3044 8.81348 55.6542V52.3856H20.3495Z" fill="#737373"/>
<path d="M67.7554 47.2553C68.3388 47.2553 68.8981 47.4272 69.3106 47.7331C69.723 48.039 69.9545 48.4539 69.9545 48.8865V50.5177C69.9545 50.9503 69.723 51.3653 69.3106 51.6712C68.8981 51.9771 68.3388 52.1489 67.7554 52.1489H8.38088C7.79768 52.1489 7.23831 51.9771 6.82591 51.6712C6.41351 51.3653 6.18182 50.9503 6.18182 50.5177V48.8865C6.18182 48.4539 6.41351 48.039 6.82591 47.7331C7.23831 47.4272 7.79768 47.2553 8.38088 47.2553H67.7554Z" fill="#FFE2B6"/>
<path d="M61.0682 38.4468H51.6591V42.3617H61.0682V38.4468Z" fill="white"/>
<path d="M21.5031 38.4937H12.2743V42.5795H21.5031V38.4937Z" fill="white"/>
<path d="M68.3863 39.2607V47.2553H8.79543V39.2607C8.79146 37.4586 9.35072 35.6806 10.4287 34.0683L12.1061 31.5958H65.0759L66.7533 34.0683C67.8312 35.6806 68.3905 37.4586 68.3863 39.2607ZM61.765 42.3102V38.1893H51.3977V42.3102H61.765ZM21.3409 42.3102V38.1893H12.1061V42.3102H21.3409Z" fill="#70CBF6"/>
<path d="M38.8072 31.9563H8.81348L14.6738 16.7326C14.9782 15.9403 15.6425 15.2412 16.5643 14.7434C17.486 14.2456 18.6137 13.9768 19.7727 13.9787H53.2273C54.3861 13.9768 55.5142 14.2456 56.4358 14.7434C57.3573 15.2412 58.0217 15.9403 58.3259 16.7326L64.1868 31.9563H38.8072Z" fill="#EDEFF8"/>
<path d="M20.3495 52.3856V55.6542C20.3495 56.3044 19.9849 56.9279 19.3359 57.3877C18.6869 57.8474 17.8066 58.1057 16.8887 58.1057H12.2743C11.3564 58.1057 10.4762 57.8474 9.8271 57.3877C9.17808 56.9279 8.81348 56.3044 8.81348 55.6542V52.3856" stroke="#0D223F" stroke-width="2" stroke-miterlimit="10"/>
<path d="M63.0331 52.3856V55.6542C63.0331 56.3044 62.6682 56.9279 62.019 57.3877C61.3703 57.8474 60.49 58.1057 59.5721 58.1057H54.9575C54.0398 58.1057 53.1595 57.8474 52.5105 57.3877C51.8615 56.9279 51.4968 56.3044 51.4968 55.6542V52.3856" stroke="#0D223F" stroke-width="2" stroke-miterlimit="10"/>
<path d="M67.6472 47.4825C68.2594 47.4825 68.8459 47.6547 69.2787 47.9612C69.7115 48.2677 69.9546 48.6834 69.9546 49.1169V50.7512C69.9546 51.1846 69.7115 51.6003 69.2787 51.9068C68.8459 52.2133 68.2594 52.3855 67.6472 52.3855H5.35268C4.74077 52.3855 4.15392 52.2133 3.72124 51.9068C3.28855 51.6003 3.04547 51.1846 3.04547 50.7512V49.1169C3.04547 48.6834 3.28855 48.2677 3.72124 47.9612C4.15392 47.6547 4.74077 47.4825 5.35268 47.4825" stroke="#0D223F" stroke-width="2" stroke-miterlimit="10"/>
<path d="M64.1862 31.9564L65.94 34.4079C67.067 36.0064 67.6514 37.7692 67.6472 39.556V47.4825H5.35262V39.556C5.34846 37.7692 5.93307 36.0064 7.05996 34.4079L8.81346 31.9564" stroke="#0D223F" stroke-width="2" stroke-miterlimit="10"/>
<path d="M64.1868 31.9563H8.81348L14.6738 16.7326C14.9782 15.9403 15.6425 15.2412 16.5643 14.7434C17.486 14.2456 18.6137 13.9768 19.7727 13.9787H53.2273C54.3861 13.9768 55.5142 14.2456 56.4358 14.7434C57.3573 15.2412 58.0217 15.9403 58.3259 16.7326L64.1868 31.9563Z" stroke="#0D223F" stroke-width="2" stroke-miterlimit="10"/>
<path d="M21.5031 38.4937H12.2743V42.5795H21.5031V38.4937Z" stroke="#0D223F" stroke-linecap="round" stroke-linejoin="round"/>
<path d="M60.7258 38.4937H51.4968V42.5795H60.7258V38.4937Z" stroke="#0D223F" stroke-linecap="round" stroke-linejoin="round"/>
<path d="M31.8856 38.4937H41.1144" stroke="#0D223F" stroke-width="2" stroke-linecap="round" stroke-linejoin="round"/>
<path d="M28.4247 42.5795H44.5752" stroke="#0D223F" stroke-width="2" stroke-linecap="round" stroke-linejoin="round"/>
<path d="M22.6567 31.9563L33.0392 24.6019" stroke="#0D223F" stroke-width="2" stroke-miterlimit="10" stroke-linecap="round"/>
<path d="M38.8072 31.9563L49.1897 24.6019" stroke="#0D223F" stroke-width="2" stroke-miterlimit="10" stroke-linecap="round"/>
<path d="M20.9263 23.7847L29.5784 17.2474" stroke="#FFE2B6" stroke-width="3" stroke-linecap="round" stroke-linejoin="round"/>
<path d="M19.1959 19.4292L22.08 17.2474" stroke="#FFE2B6" stroke-width="3" stroke-linecap="round" stroke-linejoin="round"/>
</svg>
