<svg width="72" height="72" viewBox="0 0 72 72" fill="none" xmlns="http://www.w3.org/2000/svg">
<g clip-path="url(#clip0_219_2057)">
<path fill-rule="evenodd" clip-rule="evenodd" d="M40.3201 19.7004C35.7179 19.7004 31.6816 22.0365 29.3833 25.5505L29.6253 26.0023C30.2977 25.91 30.9832 25.8554 31.6801 25.8554C40.1099 25.8554 46.9441 32.4944 46.9441 40.6833C46.9441 41.3575 46.8894 42.0192 46.7944 42.6683L47.1947 42.9536C50.848 40.7267 53.2801 36.7875 53.2801 32.2902C53.2801 25.3364 47.4784 19.7004 40.3201 19.7004ZM44.6401 40.6833C44.6401 47.637 38.8384 53.273 31.6801 53.273C24.5219 53.273 18.7201 47.637 18.7201 40.6833C18.7201 33.7296 24.5219 28.0936 31.6801 28.0936C38.8384 28.0936 44.6401 33.7296 44.6401 40.6833Z" fill="#43D490"/>
<path fill-rule="evenodd" clip-rule="evenodd" d="M54.0002 32.2902C54.0002 36.8099 51.6645 40.9785 47.752 43.4391C47.631 43.5132 47.4957 43.551 47.3618 43.551C47.127 43.551 46.8938 43.4391 46.757 43.2306C46.541 42.9075 46.636 42.4739 46.9701 42.264C50.4707 40.0636 52.5602 36.3343 52.5602 32.2902C52.5602 25.7337 47.0694 20.3999 40.3202 20.3999C36.1571 20.3999 32.3181 22.4296 30.053 25.8303C29.837 26.1576 29.3906 26.2443 29.0579 26.0373C28.7224 25.8275 28.6288 25.3938 28.8434 25.0707C31.3763 21.27 35.6675 19.001 40.3202 19.001C47.8629 19.001 54.0002 24.963 54.0002 32.2902ZM35.2802 43.481C35.2802 44.782 34.3787 45.4324 32.4002 45.5541V41.5968C33.9611 42.0164 35.2802 42.506 35.2802 43.481ZM28.0802 37.8856C28.0802 36.5847 28.9816 35.9342 30.9602 35.8125V39.7699C29.3992 39.3502 28.0802 38.8606 28.0802 37.8856ZM35.2802 37.8856C35.2802 38.2717 35.6027 38.585 36.0002 38.585C36.3976 38.585 36.7202 38.2717 36.7202 37.8856C36.7202 36.3916 35.9166 34.6501 32.4002 34.4318V33.689C32.4002 33.303 32.0776 32.9896 31.6802 32.9896C31.2827 32.9896 30.9602 33.303 30.9602 33.689V34.4318C27.4437 34.6501 26.6402 36.3916 26.6402 37.8856C26.6402 40.0916 29.2221 40.7728 30.9602 41.2205V45.5541C28.9816 45.4324 28.0802 44.782 28.0802 43.481C28.0802 43.095 27.7576 42.7816 27.3602 42.7816C26.9627 42.7816 26.6402 43.095 26.6402 43.481C26.6402 44.975 27.4437 46.7166 30.9602 46.9348V47.6776C30.9602 48.0637 31.2827 48.377 31.6802 48.377C32.0776 48.377 32.4002 48.0637 32.4002 47.6776V46.9348C35.9166 46.7166 36.7202 44.975 36.7202 43.481C36.7202 41.275 34.1382 40.5938 32.4002 40.1462V35.8125C34.3787 35.9342 35.2802 36.5847 35.2802 37.8856ZM31.6802 52.5736C24.9309 52.5736 19.4402 47.2398 19.4402 40.6833C19.4402 34.1269 24.9309 28.793 31.6802 28.793C38.4294 28.793 43.9202 34.1269 43.9202 40.6833C43.9202 47.2398 38.4294 52.5736 31.6802 52.5736ZM31.6802 27.3942C24.1374 27.3942 18.0002 33.3561 18.0002 40.6833C18.0002 48.0105 24.1374 53.9725 31.6802 53.9725C39.2229 53.9725 45.3602 48.0105 45.3602 40.6833C45.3602 33.3561 39.2229 27.3942 31.6802 27.3942Z" fill="#0D223F"/>
<path opacity="0.24" fill-rule="evenodd" clip-rule="evenodd" d="M45.2716 39.2079C45.2313 38.854 44.9231 38.5854 44.5559 38.5854C44.1887 38.5854 43.8805 38.8526 43.8402 39.2079C43.1533 45.2328 37.9261 49.7762 31.6809 49.7762C25.4341 49.7762 20.2069 45.2328 19.5201 39.2079C19.4797 38.8526 19.1716 38.5854 18.8044 38.5854C18.4372 38.5854 18.129 38.854 18.0887 39.2079C18.034 39.6919 18.0009 40.1843 18.0009 40.6837C18.0009 48.0109 24.1367 53.9728 31.6809 53.9728C39.2236 53.9728 45.3609 48.0109 45.3609 40.6837C45.3609 40.1843 45.3263 39.6919 45.2716 39.2079Z" fill="#0D223F"/>
</g>
<defs>
<clipPath id="clip0_219_2057">
<rect width="36" height="34.9714" fill="white" transform="translate(18 19)"/>
</clipPath>
</defs>
</svg>
