<svg width="72" height="72" viewBox="0 0 72 72" fill="none" xmlns="http://www.w3.org/2000/svg">
<g clip-path="url(#clip0_219_2057)">
<g clip-path="url(#clip1_219_2057)">
<path fill-rule="evenodd" clip-rule="evenodd" d="M41.0402 16.8171C35.6709 16.8171 30.9618 19.5426 28.2806 23.6422L28.5628 24.1693C29.3474 24.0616 30.147 23.9979 30.9602 23.9979C40.7949 23.9979 48.7682 31.7434 48.7682 41.2971C48.7682 42.0838 48.7043 42.8557 48.5934 43.6129L49.0605 43.9459C53.3226 41.3477 56.1602 36.752 56.1602 31.5051C56.1602 23.3925 49.3914 16.8171 41.0402 16.8171ZM46.0802 41.2971C46.0802 49.4098 39.3114 55.9851 30.9602 55.9851C22.6089 55.9851 15.8402 49.4098 15.8402 41.2971C15.8402 33.1845 22.6089 26.6091 30.9602 26.6091C39.3114 26.6091 46.0802 33.1845 46.0802 41.2971Z" fill="#43D490"/>
<path fill-rule="evenodd" clip-rule="evenodd" d="M57.0002 31.505C57.0002 36.778 54.2752 41.6414 49.7106 44.5121C49.5695 44.5986 49.4116 44.6426 49.2554 44.6426C48.9815 44.6426 48.7094 44.5121 48.5498 44.2689C48.2978 43.8919 48.4086 43.386 48.7984 43.1412C52.8825 40.5741 55.3202 36.2231 55.3202 31.505C55.3202 23.8559 48.9143 17.633 41.0402 17.633C36.1833 17.633 31.7044 20.0011 29.0618 23.9685C28.8098 24.3503 28.289 24.4515 27.9009 24.21C27.5094 23.9652 27.4002 23.4593 27.6506 23.0823C30.6057 18.6481 35.6121 16.001 41.0402 16.001C49.84 16.001 57.0002 22.9566 57.0002 31.505ZM35.1602 44.561C35.1602 46.0788 34.1085 46.8377 31.8002 46.9797V42.3627C33.6213 42.8523 35.1602 43.4235 35.1602 44.561ZM26.7602 38.033C26.7602 36.5153 27.8118 35.7564 30.1202 35.6144V40.2313C28.299 39.7417 26.7602 39.1705 26.7602 38.033ZM35.1602 38.033C35.1602 38.4835 35.5365 38.849 36.0002 38.849C36.4638 38.849 36.8402 38.4835 36.8402 38.033C36.8402 36.2901 35.9027 34.2582 31.8002 34.0036V33.137C31.8002 32.6866 31.4238 32.321 30.9602 32.321C30.4965 32.321 30.1202 32.6866 30.1202 33.137V34.0036C26.0176 34.2582 25.0802 36.2901 25.0802 38.033C25.0802 40.6067 28.0924 41.4015 30.1202 41.9237V46.9797C27.8118 46.8377 26.7602 46.0788 26.7602 44.561C26.7602 44.1106 26.3838 43.745 25.9202 43.745C25.4565 43.745 25.0802 44.1106 25.0802 44.561C25.0802 46.304 26.0176 48.3359 30.1202 48.5904V49.457C30.1202 49.9075 30.4965 50.273 30.9602 50.273C31.4238 50.273 31.8002 49.9075 31.8002 49.457V48.5904C35.9027 48.3359 36.8402 46.304 36.8402 44.561C36.8402 41.9874 33.8279 41.1926 31.8002 40.6703V35.6144C34.1085 35.7564 35.1602 36.5153 35.1602 38.033ZM30.9602 55.169C23.086 55.169 16.6802 48.9462 16.6802 41.297C16.6802 33.6479 23.086 27.425 30.9602 27.425C38.8343 27.425 45.2402 33.6479 45.2402 41.297C45.2402 48.9462 38.8343 55.169 30.9602 55.169ZM30.9602 25.793C22.1603 25.793 15.0002 32.7486 15.0002 41.297C15.0002 49.8455 22.1603 56.801 30.9602 56.801C39.76 56.801 46.9202 49.8455 46.9202 41.297C46.9202 32.7486 39.76 25.793 30.9602 25.793Z" fill="#0D223F"/>
<path opacity="0.24" fill-rule="evenodd" clip-rule="evenodd" d="M46.8168 39.5758C46.7698 39.163 46.4103 38.8496 45.9819 38.8496C45.5535 38.8496 45.194 39.1613 45.1469 39.5758C44.3456 46.6049 38.2472 51.9056 30.961 51.9056C23.6732 51.9056 17.5748 46.6049 16.7734 39.5758C16.7264 39.1613 16.3668 38.8496 15.9384 38.8496C15.51 38.8496 15.1505 39.163 15.1035 39.5758C15.0396 40.1405 15.001 40.715 15.001 41.2976C15.001 49.846 22.1595 56.8016 30.961 56.8016C39.7608 56.8016 46.921 49.846 46.921 41.2976C46.921 40.715 46.8807 40.1405 46.8168 39.5758Z" fill="#0D223F"/>
</g>
</g>
<defs>
<clipPath id="clip0_219_2057">
<rect width="72" height="72" fill="white"/>
</clipPath>
<clipPath id="clip1_219_2057">
<rect width="42" height="40.8" fill="white" transform="translate(15 16)"/>
</clipPath>
</defs>
</svg>
