<svg width="72" height="72" viewBox="0 0 72 72" fill="none" xmlns="http://www.w3.org/2000/svg">
<g clip-path="url(#clip0_161_2086)">
<path fill-rule="evenodd" clip-rule="evenodd" d="M41.359 13.9213C35.3054 13.9213 29.9962 16.9941 26.9732 21.6161L27.2914 22.2105C28.176 22.089 29.0776 22.0173 29.9943 22.0173C41.0825 22.0173 50.072 30.7499 50.072 41.5213C50.072 42.4081 50 43.2785 49.875 44.1322L50.4015 44.5076C55.2069 41.5783 58.4061 36.3969 58.4061 30.4813C58.4061 21.3346 50.7747 13.9213 41.359 13.9213ZM47.0414 41.5213C47.0414 50.6679 39.41 58.0813 29.9943 58.0813C20.5787 58.0813 12.9473 50.6679 12.9473 41.5213C12.9473 32.3746 20.5787 24.9613 29.9943 24.9613C39.41 24.9613 47.0414 32.3746 47.0414 41.5213Z" fill="#43D490"/>
<path fill-rule="evenodd" clip-rule="evenodd" d="M59.3532 30.4813C59.3532 36.4264 56.2809 41.9096 51.1346 45.1461C50.9755 45.2437 50.7974 45.2933 50.6213 45.2933C50.3125 45.2933 50.0057 45.1461 49.8257 44.872C49.5416 44.4469 49.6666 43.8765 50.1061 43.6005C54.7107 40.7062 57.459 35.8008 57.459 30.4813C57.459 21.8573 50.2368 14.8413 41.359 14.8413C35.8831 14.8413 30.8334 17.5112 27.854 21.9842C27.5699 22.4148 26.9827 22.5289 26.5451 22.2565C26.1038 21.9805 25.9807 21.4101 26.2629 20.9851C29.5947 15.9858 35.2391 13.0013 41.359 13.0013C51.2804 13.0013 59.3532 20.8434 59.3532 30.4813ZM34.7296 45.2013C34.7296 46.9125 33.5439 47.7681 30.9414 47.9282V42.7229C32.9946 43.2749 34.7296 43.9189 34.7296 45.2013ZM25.259 37.8413C25.259 36.1301 26.4448 35.2745 29.0473 35.1145V40.3198C26.994 39.7678 25.259 39.1238 25.259 37.8413ZM34.7296 37.8413C34.7296 38.3492 35.1539 38.7613 35.6767 38.7613C36.1995 38.7613 36.6237 38.3492 36.6237 37.8413C36.6237 35.8762 35.5668 33.5854 30.9414 33.2984V32.3213C30.9414 31.8135 30.5171 31.4013 29.9943 31.4013C29.4716 31.4013 29.0473 31.8135 29.0473 32.3213V33.2984C24.4218 33.5854 23.3649 35.8762 23.3649 37.8413C23.3649 40.743 26.7611 41.6391 29.0473 42.2279V47.9282C26.4448 47.7681 25.259 46.9125 25.259 45.2013C25.259 44.6935 24.8348 44.2813 24.312 44.2813C23.7892 44.2813 23.3649 44.6935 23.3649 45.2013C23.3649 47.1665 24.4218 49.4573 29.0473 49.7443V50.7213C29.0473 51.2292 29.4716 51.6413 29.9943 51.6413C30.5171 51.6413 30.9414 51.2292 30.9414 50.7213V49.7443C35.5668 49.4573 36.6237 47.1665 36.6237 45.2013C36.6237 42.2997 33.2276 41.4036 30.9414 40.8148V35.1145C33.5439 35.2745 34.7296 36.1301 34.7296 37.8413ZM29.9943 57.1613C21.1166 57.1613 13.8943 50.1454 13.8943 41.5213C13.8943 32.8973 21.1166 25.8813 29.9943 25.8813C38.8721 25.8813 46.0943 32.8973 46.0943 41.5213C46.0943 50.1454 38.8721 57.1613 29.9943 57.1613ZM29.9943 24.0413C20.0729 24.0413 12.0002 31.8834 12.0002 41.5213C12.0002 51.1593 20.0729 59.0013 29.9943 59.0013C39.9157 59.0013 47.9884 51.1593 47.9884 41.5213C47.9884 31.8834 39.9157 24.0413 29.9943 24.0413Z" fill="#0D223F"/>
<path opacity="0.24" fill-rule="evenodd" clip-rule="evenodd" d="M47.8719 39.5806C47.8189 39.1151 47.4136 38.7618 46.9306 38.7618C46.4476 38.7618 46.0422 39.1133 45.9892 39.5806C45.0857 47.5055 38.21 53.4818 29.9953 53.4818C21.7786 53.4818 14.9029 47.5055 13.9994 39.5806C13.9464 39.1133 13.5411 38.7618 13.0581 38.7618C12.5751 38.7618 12.1697 39.1151 12.1167 39.5806C12.0447 40.2173 12.0011 40.865 12.0011 41.5218C12.0011 51.1598 20.072 59.0018 29.9953 59.0018C39.9166 59.0018 47.9894 51.1598 47.9894 41.5218C47.9894 40.865 47.9439 40.2173 47.8719 39.5806Z" fill="#0D223F"/>
</g>
<defs>
<clipPath id="clip0_161_2086">
<rect width="47.3529" height="46" fill="white" transform="translate(12 13)"/>
</clipPath>
</defs>
</svg>
